<?xml version="1.0" encoding="utf-8"?>
<!-- Generator: Adobe Illustrator 25.2.1, SVG Export Plug-In . SVG Version: 6.00 Build 0)  -->
<svg version="1.1" id="Ebene_1" xmlns="http://www.w3.org/2000/svg" xmlns:xlink="http://www.w3.org/1999/xlink" x="0px" y="0px"
	 viewBox="0 0 30 30" style="enable-background:new 0 0 30 30;" xml:space="preserve">
<style type="text/css">
	.st0{opacity:0.5;fill:#FFFFFF;}
</style>
<path class="st0" d="M25.8,23.9l-5.3-5.3c1.1-1.5,1.7-3.4,1.7-5.4c0-5.1-4.2-9.3-9.3-9.3S3.6,8,3.6,13.1c0,5.1,4.2,9.3,9.3,9.3
	c2.1,0,4-0.7,5.5-1.8l5.3,5.3L25.8,23.9z M6.2,13.1c0-3.7,3-6.8,6.8-6.8c3.7,0,6.8,3,6.8,6.8c0,3.7-3,6.8-6.8,6.8
	C9.2,19.9,6.2,16.9,6.2,13.1z"/>
</svg>
