<?xml version="1.0" encoding="utf-8"?>
<!-- Generator: Adobe Illustrator 25.2.1, SVG Export Plug-In . SVG Version: 6.00 Build 0)  -->
<svg version="1.1" id="Ebene_1" xmlns="http://www.w3.org/2000/svg" xmlns:xlink="http://www.w3.org/1999/xlink" x="0px" y="0px"
	 viewBox="0 0 140.5 113.8" style="enable-background:new 0 0 140.5 113.8;" xml:space="preserve">
<style type="text/css">
	.st0{fill:#634E42;}
</style>
<g id="Ebene_2_1_">
	<g id="Ebene_1-2">
		<path class="st0" d="M9.9,14H8.1V7.8H2.9V14H1.1V0.3h1.8v6h5.2v-6h1.8V14z"/>
		<path class="st0" d="M35.6,2.3h-5.9v3.8h5.6V8h-5.6v4.1h6V14h-8.4V0.3h8.3L35.6,2.3z"/>
		<path class="st0" d="M57.3,8.5h-1.6V14h-3V0.3h5c3.1,0,4.8,1.5,4.8,4.2c0,1.5-0.9,2.9-2.3,3.5l2.8,6h-3.3L57.3,8.5z M55.7,6.5h1.6
			c1,0.1,1.9-0.5,2.1-1.5c0-0.2,0-0.3,0-0.5c0.1-1-0.6-1.9-1.7-2c-0.1,0-0.3,0-0.4,0h-1.6L55.7,6.5z"/>
		<path class="st0" d="M84.4,2.8h-5.7V0.3H88v2.3l-5.9,8.9h6.2V14h-9.9v-2.3L84.4,2.8z"/>
		<path class="st0" d="M104.2,7.9V6.5c0-4,1.7-6.5,5.1-6.5s5.1,2.5,5.1,6.5v1.4c0,4-1.7,6.5-5.1,6.5S104.2,11.9,104.2,7.9z M112,7.9
			V6.4c0-3.1-0.8-4.5-2.7-4.5s-2.7,1.4-2.7,4.5v1.5c0,3.1,0.8,4.5,2.7,4.5S112,11,112,7.9L112,7.9z"/>
		<path class="st0" d="M130.3,7.8V6.4c0-4,1.8-6.4,5-6.4c3.4,0,4.2,2.6,4.4,4.2L138,4.4c0-1.5-1.2-2.8-2.7-2.8
			c-1.9,0-3.1,1.2-3.1,5.2v0.8c0,3.3,0.9,5.3,3.1,5.3c2.5,0,3-2.5,3-3.7V8.3h-3.4V6.9h5.1V14h-1.2l-0.3-2c-0.5,1.5-1.9,2.4-3.4,2.4
			C131.9,14.4,130.3,11.6,130.3,7.8z"/>
		<path class="st0" d="M7.7,43.8H3.3l-1,3.5H0l4.1-13.7h2.8L11,47.3H8.7L7.7,43.8z M3.9,41.9h3.3c-0.6-2.1-1.2-4.2-1.6-6.3H5.5
			C5,37.7,4.5,39.8,3.9,41.9z"/>
		<path class="st0" d="M29.6,33.6v9.3c0,1.3,0.7,2.2,1.9,2.2c1.3,0,1.8-0.9,1.8-2.2v-9.3h3.1V43c0,2.9-1.8,4.7-4.9,4.7s-5-1.8-5-4.7
			v-9.4H29.6z"/>
		<path class="st0" d="M51.9,41.8v-2.7c0-3.7,1.8-5.9,5.5-5.9s5.2,2.4,5.2,4.6l-3.8,0.7c0-1.4-0.4-2.5-1.5-2.5s-1.7,0.8-1.7,3v2.5
			c0,2.4,0.7,3.3,1.8,3.3s1.8-0.9,1.8-2.5v-0.1h-1.9v-2.6h5.2v7.6h-2.6l-0.1-2c-0.5,1.5-1.9,2.5-3.5,2.3
			C54.2,47.6,51.9,45.9,51.9,41.8z"/>
		<path class="st0" d="M82.1,33.6V43c0,1,0.5,1.6,1.3,1.6s1.3-0.6,1.3-1.6v-9.4h3.8v9.5c0,2.9-2,4.5-5,4.5s-5.2-1.6-5.2-4.5v-9.5
			H82.1z"/>
		<path class="st0" d="M103.8,44l2.6-1.2c0.3,1.4,1.6,2.4,3.1,2.3c0.9,0,2-0.4,2-1.5s-0.6-1.5-1.7-1.8l-1.8-0.5
			c-2.1-0.6-3.5-1.8-3.5-3.9c0-2.5,2-4.2,4.9-4.2c2.4,0,4.3,1,5.1,2.9l-2.3,1.7c-0.4-1.2-1.6-2.1-2.9-2.1c-1.3,0-1.8,0.7-1.8,1.4
			s0.6,1.4,1.7,1.7l1.9,0.5c2,0.6,3.6,1.5,3.6,4s-1.9,4.4-5.2,4.4C106.9,47.8,104.6,46.3,103.8,44z"/>
		<path class="st0" d="M140.5,33.6v2h-4v11.7H134V35.6h-4v-2L140.5,33.6z"/>
		<path class="st0" d="M10.3,70.5c0,1.4-1,2.6-2.4,2.9c1.7,0.2,2.9,1.7,2.7,3.3c0,1.8-1.1,3.8-4.5,3.8h-5V66.8h4.7
			C9.4,66.8,10.3,68.9,10.3,70.5z M3.5,72.7h2.1c2,0,2.3-1.1,2.3-2s-0.4-2-2.3-2H3.5V72.7z M3.5,78.7h2.3C7,78.8,8,78.1,8.2,76.9
			c0-0.1,0-0.3,0-0.4c0.1-1.1-0.8-2-1.9-2.1c-0.1,0-0.2,0-0.3,0H3.5V78.7z"/>
		<path class="st0" d="M33,69.2v9.1h2.9v2.3H27v-2.3h2.9v-9.1H27v-2.3h8.9v2.3H33z"/>
		<path class="st0" d="M62.6,70.5c0,1.5-1.2,2.7-2.6,2.9c1.7,0.1,3,1.5,2.9,3.2c0,1.9-1.2,4-4.7,4h-5.6V66.8h5.5
			C61.7,66.8,62.6,68.9,62.6,70.5z M56.3,72.4h1c0.7,0.1,1.4-0.4,1.5-1.1c0-0.1,0-0.3,0-0.4c0.1-0.7-0.4-1.4-1.1-1.5
			c-0.1,0-0.2,0-0.3,0h-1V72.4z M56.3,77.9h1.2c0.8,0,1.5-0.6,1.6-1.4c0-0.1,0-0.2,0-0.2c0.1-0.8-0.5-1.5-1.3-1.6
			c-0.1,0-0.2,0-0.3,0h-1.2L56.3,77.9z"/>
		<path class="st0" d="M82.7,66.8v10.6h5.4v3.1H79V66.8H82.7z"/>
		<path class="st0" d="M110.8,69.2v9.1h2.9v2.3h-8.9v-2.3h2.9v-9.1h-2.9v-2.3h8.9v2.3H110.8z"/>
		<path class="st0" d="M130.1,74.4V73c0-4,1.7-6.5,5.1-6.5s5.1,2.5,5.1,6.5v1.4c0,4-1.7,6.5-5.1,6.5S130.1,78.4,130.1,74.4z
			 M137.9,74.4v-1.5c0-3.1-0.8-4.5-2.7-4.5s-2.7,1.4-2.7,4.5v1.5c0,3.1,0.8,4.5,2.7,4.5S138,77.5,137.9,74.4L137.9,74.4z"/>
		<path class="st0" d="M10.7,100.1v1.5H6.4v12.2H4.6v-12.2H0.3v-1.5H10.7z"/>
		<path class="st0" d="M36,113.8h-2.4v-6h-4.4v6h-2.4v-13.7h2.4v5.8h4.4v-5.8H36V113.8z"/>
		<path class="st0" d="M61.7,102.5h-5.5v3.1h5.2v2.4h-5.2v3.4h5.6v2.4h-8.7v-13.8h8.5V102.5z"/>
		<path class="st0" d="M82.8,107.7l-1.1,1.8v4.3h-3v-13.7h3v5.9l3.5-5.9h3.4l-3.6,5.5l3.9,8.2h-3.5L82.8,107.7z"/>
	</g>
</g>
</svg>
